PathFileType	4	(X/Y/Z)	 s02c0203.trc
DataRate	CameraRate	NumFrames	NumMarkers	Units	OrigDataRate	OrigDataStartFrame	OrigNumFrames
200	200	4	51	mm	200	1501	2000
Frame#	Time	racr			lacr			c7			jug			rlel			rdr			llel			ldr			s2			lic			ric			lasi			rasi			rpsi			lpsi			rgt			lgt			rth1			rth2			rth3			rth4			rlfc			rmfc			rsh1			rsh2			rsh3			rsh4			rlmal			rmmal			rcal			rtoe			rmt5			rmt1			lth1			lth2			lth4			lth3			llfc			lmfc			lsh1			lsh2			lsh3			lsh4			llmal			lmmal			lcal			ltoe			lmt5			SBIKE			LBIKE			RBIKE			
		X1	Y1	Z1	X2	Y2	Z2	X3	Y3	Z3	X4	Y4	Z4	X5	Y5	Z5	X6	Y6	Z6	X7	Y7	Z7	X8	Y8	Z8	X9	Y9	Z9	X10	Y10	Z10	X11	Y11	Z11	X12	Y12	Z12	X13	Y13	Z13	X14	Y14	Z14	X15	Y15	Z15	X16	Y16	Z16	X17	Y17	Z17	X18	Y18	Z18	X19	Y19	Z19	X20	Y20	Z20	X21	Y21	Z21	X22	Y22	Z22	X23	Y23	Z23	X24	Y24	Z24	X25	Y25	Z25	X26	Y26	Z26	X27	Y27	Z27	X28	Y28	Z28	X29	Y29	Z29	X30	Y30	Z30	X31	Y31	Z31	X32	Y32	Z32	X33	Y33	Z33	X34	Y34	Z34	X35	Y35	Z35	X36	Y36	Z36	X37	Y37	Z37	X38	Y38	Z38	X39	Y39	Z39	X40	Y40	Z40	X41	Y41	Z41	X42	Y42	Z42	X43	Y43	Z43	X44	Y44	Z44	X45	Y45	Z45	X46	Y46	Z46	X47	Y47	Z47	X48	Y48	Z48	X49	Y49	Z49	X50	Y50	Z50	X51	Y51	Z51	
1501	7.5050	576.280682	1215.761680	-184.029970	527.990712	1243.691658	-509.320358	537.406683	1274.236957	-347.001175	476.378513	1145.645876	-341.098504	574.463410	1018.723883	-7.065611	705.203702	888.374524	-94.886581	523.960304	996.996291	-644.720000	685.536561	885.267555	-539.584163	12.795634	1117.512828	-289.427960	128.426995	1115.991494	-443.565128	143.020283	1100.510948	-149.867609	177.743700	1118.275946	-418.551691	192.227881	1078.035986	-185.547217	31.809183	1145.142606	-246.797829	34.870510	1156.817826	-330.332256	117.071936	1010.837843	-113.933022	103.230177	1036.869205	-474.176505	204.940402	961.809691	-117.100133	284.330059	922.636060	-120.432390	335.902962	857.578212	-98.510917	304.181916	943.035180	-145.593367	410.022386	737.871590	-132.434288	395.232440	723.093822	-241.996600	353.336998	640.353571	-120.378931	307.670173	564.739218	-141.817966	236.406452	518.140333	-136.550485	320.547898	558.871180	-178.057280	148.554301	444.861294	-144.529129	172.155128	453.818035	-224.688234	70.637406	468.834931	-190.431829	231.239490	230.996060	-185.289114	155.058236	310.840578	-130.070739	181.824054	295.898414	-237.334355	227.485206	974.357773	-492.244696	309.438626	945.434240	-492.209956	328.165809	972.263664	-473.124020	365.881215	876.401156	-494.980405	445.487853	809.921937	-476.361996	459.980216	779.917083	-374.154698	432.700570	706.581103	-496.506345	434.722817	620.594252	-482.693049	390.471682	541.836042	-483.955204	454.539472	619.039184	-447.360495	347.389612	441.921810	-470.756020	367.068340	439.641072	-394.276871	281.736568	388.951330	-434.243571	569.236327	363.838523	-439.185735	462.176230	346.570998	-501.624480	-126.153876	871.854226	-307.658734	37.197252	86.644321	-514.215400	33.530507	83.459642	-114.271662	
1502	7.5100	575.744442	1215.719864	-183.378354	528.006031	1242.922907	-508.819990	536.990804	1273.802536	-346.432241	476.408561	1145.003756	-340.464708	573.897710	1018.420758	-6.651866	705.077512	888.546439	-94.504568	523.556531	996.336482	-644.265708	685.490521	884.892337	-539.343104	12.173583	1116.475812	-289.737029	128.387665	1114.906423	-444.029884	143.972396	1100.058917	-148.407076	177.527042	1119.313597	-418.516752	191.357176	1077.452094	-185.959905	31.009128	1143.845054	-247.212379	34.246755	1155.376533	-330.755397	117.230400	1010.731357	-113.368380	102.677233	1034.982455	-474.035274	205.507460	963.318660	-117.196645	285.761013	926.260599	-121.161361	339.319010	862.982706	-98.863030	304.819767	946.851310	-146.705327	415.313478	744.532411	-133.042597	400.403354	729.394557	-241.742621	357.693518	647.449198	-120.406927	311.097056	572.417993	-141.787140	238.932526	526.948256	-136.609562	323.790870	566.346299	-178.086076	150.195327	455.374129	-144.650131	174.164110	463.850525	-224.781911	72.533574	480.478791	-190.552159	229.988894	240.458654	-185.205509	154.886342	321.386216	-130.077031	181.388399	306.041329	-237.331736	226.253140	970.268557	-492.397879	307.631101	939.503823	-492.137199	326.915911	966.072411	-473.258280	362.590359	869.340570	-494.442100	441.491180	802.867757	-474.983471	457.039612	772.419573	-373.908142	429.450661	698.647551	-496.191571	433.013251	612.758652	-482.962195	389.817146	533.334162	-484.012238	452.822177	611.371149	-447.558084	348.623813	431.851279	-471.152511	368.127303	429.514743	-394.592848	282.437594	379.399985	-435.091699	570.395799	352.098926	-439.007513	463.316927	335.722795	-501.632396	-126.197697	871.840435	-307.640784	37.200722	86.640095	-514.218531	33.519865	83.455194	-114.277092	
1503	7.5150	575.186972	1215.643764	-182.592978	528.068105	1242.113555	-508.249809	536.622954	1273.389653	-345.758522	476.343769	1144.451559	-339.730819	573.378723	1018.110077	-6.197758	704.933851	888.525147	-94.250880	523.310201	995.578582	-643.889674	685.489396	884.568963	-539.219083	11.570347	1115.250478	-290.189671	128.731898	1113.742415	-444.270651	143.305650	1099.532709	-148.735062	177.303350	1120.331474	-418.498455	190.537976	1077.282063	-186.492141	30.253719	1142.723100	-247.644910	33.964026	1154.030205	-331.349997	117.326222	1010.564767	-113.148181	102.184935	1033.134636	-474.012917	205.855152	964.967601	-117.369911	287.085362	929.879112	-122.338337	342.532709	868.761223	-99.056403	305.656471	951.810432	-146.796982	420.758260	751.575778	-132.689978	405.653604	735.877042	-241.533614	361.997305	654.837348	-120.468651	314.501957	580.294624	-141.884751	242.034761	535.858637	-136.754548	327.175056	574.148303	-178.198079	152.139639	465.890456	-144.773815	174.879729	475.174118	-224.917001	74.723101	491.778536	-190.587859	229.465918	250.124411	-185.192373	155.346882	331.934725	-130.150577	181.736223	316.131644	-237.332650	225.028951	965.981310	-492.551964	305.757125	933.434007	-492.211502	325.604844	959.518598	-473.748703	358.887721	861.969588	-494.604602	436.803781	794.780320	-474.220425	451.905865	763.335129	-372.642587	425.874990	690.622412	-495.917174	430.646300	605.010036	-483.002613	388.723904	524.754427	-484.725596	450.550701	603.566915	-447.473120	349.208962	421.683946	-471.690323	368.662228	419.504678	-394.837118	283.636288	369.701912	-435.228611	571.071945	340.247982	-438.656725	463.839175	324.866645	-501.631606	-126.226734	871.812246	-307.715015	37.176709	86.636153	-514.183757	33.350320	83.759518	-114.242035	
1504	7.5200	574.769751	1215.705526	-181.283513	528.248900	1241.391272	-507.632388	536.269925	1273.026243	-344.892087	476.625487	1143.797907	-338.766446	572.856928	1017.604641	-5.706322	704.743202	888.484826	-94.002554	523.121111	994.801559	-643.501178	685.572941	884.265444	-539.249706	10.283468	1112.798142	-290.779727	128.919897	1112.748467	-444.804413	142.582839	1099.023517	-149.084333	177.072928	1121.329400	-418.496381	189.584086	1077.097338	-187.274131	29.324126	1141.945640	-248.272324	33.531970	1152.937540	-331.997293	116.985945	1010.122406	-113.789940	101.722696	1031.277653	-474.076144	205.973624	966.832337	-117.532927	288.112749	933.892959	-122.963265	345.337562	874.663427	-99.266127	305.846116	956.228661	-147.541821	425.932717	758.894800	-132.542208	411.068611	743.484547	-240.873937	366.659165	662.359866	-120.303713	318.124072	588.575131	-141.900447	244.842579	544.783402	-136.737030	330.656090	582.218987	-178.055007	154.389079	476.404754	-144.933691	176.863110	485.411489	-224.943711	77.524251	502.870282	-191.362908	229.673019	259.900702	-185.091713	156.322002	342.643664	-130.188873	182.513424	326.567252	-237.427570	223.795336	961.817921	-492.758118	303.894893	927.466694	-492.507108	324.179919	953.035027	-473.914403	355.272382	854.739063	-493.602745	432.060322	786.303700	-473.519524	445.598990	754.109685	-372.431188	421.906670	682.208978	-495.704687	427.950454	596.717927	-483.008143	387.251847	515.734674	-484.983125	447.631220	595.045029	-446.990297	349.296273	411.610182	-472.172975	366.562057	409.290480	-395.285879	283.750671	360.194568	-435.651023	571.215553	329.189301	-439.466707	463.674229	313.951380	-501.630959	-126.242343	871.775915	-307.762641	37.176648	86.613500	-514.177319	33.324883	83.717371	-114.204798	
